# xmcd
#
# Track frame offsets: 
#        182
#        14100
#        27750
#        40275
#        55725
#        71600
#        85625
#        101975
#        115650
#        131950
#        173700
#        188100
#        200375
#        214500
#
# Disc length: 3068 seconds
#
# Revision: 4
# Processed by: cddbd v1.5.2PL0 Copyright (c) Steve Scherf et al.
# Submitted via: ExactAudioCopy v0.95b4
#
DISCID=c20bfa0e
DTITLE=Various Artist - Jazz and dintorni vol.3 - Charlie Parker and Miles Davis
DYEAR=1997
DGENRE=Jazz
TTITLE0=Charlie Parker - Now's the time 
TTITLE1=Charlie Parker - Laura 
TTITLE2=Charlie Parker - Blues for Alice 
TTITLE3=Charlie Parker - Loverman 
TTITLE4=Charlie Parker - Just friends 
TTITLE5=Charlie Parker - April in  Paris 
TTITLE6=Charlie Parker - Mohawk 
TTITLE7=Charlie Parker - Confirmation 
TTITLE8=Charlie Parker and Miles Davis - Star Eyes 
TTITLE9=Charlie Parker - I can't get started 
TTITLE10=Charlie Parker - Swedish Schnapps 
TTITLE11=Charlie Parker and Miles Davis - Au Privave 
TTITLE12=Charlie Parker and Miles Davis - She Rote 
TTITLE13=Charlie Parker and Miles Davis - K.C. Blues 
EXTD=Fabbri Editori YEAR: 1997
EXTT0=
EXTT1=
EXTT2=
EXTT3=
EXTT4=
EXTT5=
EXTT6=
EXTT7=
EXTT8=
EXTT9=
EXTT10=
EXTT11=
EXTT12=
EXTT13=
PLAYORDER=
